<?xml version="1.0" standalone="no"?>
<!DOCTYPE svg PUBLIC "-//W3C//DTD SVG 20010904//EN"
 "http://www.w3.org/TR/2001/REC-SVG-20010904/DTD/svg10.dtd">
<svg version="1.0" xmlns="http://www.w3.org/2000/svg"
 width="1024.000000pt" height="1024.000000pt" viewBox="0 0 1024.000000 1024.000000"
 preserveAspectRatio="xMidYMid meet">
<metadata>
Created by potrace 1.11, written by Peter Selinger 2001-2013
</metadata>
<g transform="translate(0.000000,1024.000000) scale(0.100000,-0.100000)"
fill="#000000" stroke="none">
<path d="M2555 7680 l-2560 -2560 2560 -2560 c1408 -1408 2564 -2560 2570
-2560 16 0 5115 5104 5115 5120 0 16 -5099 5120 -5115 5120 -6 0 -1162 -1152
-2570 -2560z m963 -665 c12 -19 22 -38 22 -42 0 -4 15 -30 33 -58 35 -53 86
-137 120 -195 10 -19 27 -46 37 -60 10 -14 27 -41 38 -60 11 -19 38 -66 61
-103 l42 -69 -38 -45 c-21 -25 -49 -60 -63 -78 -14 -18 -52 -66 -85 -106 -123
-149 -191 -232 -220 -269 -16 -20 -84 -103 -150 -184 -66 -81 -136 -167 -155
-191 -19 -24 -107 -133 -196 -242 l-160 -198 154 -190 c84 -105 179 -221 210
-259 32 -38 100 -122 152 -187 90 -111 236 -290 344 -424 27 -33 79 -96 115
-140 36 -44 72 -88 79 -97 11 -14 7 -26 -29 -85 -23 -37 -50 -84 -61 -103 -11
-19 -33 -54 -49 -77 -16 -23 -29 -44 -29 -48 0 -3 -18 -33 -40 -65 -22 -32
-40 -62 -40 -65 0 -4 -14 -26 -30 -50 -17 -24 -34 -52 -38 -62 -16 -39 -47
-83 -59 -83 -7 0 -13 4 -13 8 0 5 -28 42 -63 83 -34 41 -71 86 -82 100 -11 15
-66 82 -123 150 -57 68 -135 164 -175 213 -40 49 -88 107 -108 130 -20 23 -76
91 -125 152 -49 60 -127 156 -174 213 -47 56 -101 122 -120 145 -19 24 -71 87
-115 140 -44 53 -91 111 -105 129 -14 18 -70 87 -125 152 -55 66 -118 143
-139 170 -22 28 -57 69 -78 92 -21 24 -38 49 -38 57 0 8 28 48 63 88 34 41 87
105 117 143 30 37 100 122 155 188 129 156 225 273 250 307 11 14 65 79 120
144 55 65 111 133 125 151 14 18 61 76 105 129 44 53 94 115 112 137 18 22 56
68 85 103 29 34 89 107 133 161 44 54 98 120 120 146 22 26 76 90 119 143 43
53 82 96 85 96 3 0 16 -16 29 -35z m3242 16 c5 -11 40 -55 78 -99 37 -43 92
-110 122 -147 51 -63 97 -119 234 -285 30 -36 85 -103 122 -149 38 -46 97
-118 132 -160 34 -42 87 -105 116 -141 30 -36 81 -99 115 -140 148 -181 209
-256 251 -305 25 -29 77 -92 115 -140 39 -47 118 -145 178 -216 59 -71 107
-131 107 -134 0 -3 -28 -39 -62 -79 -77 -89 -114 -134 -249 -299 -182 -225
-302 -371 -389 -476 -47 -56 -101 -122 -120 -146 -45 -57 -146 -180 -185 -226
-16 -20 -66 -80 -110 -133 -44 -54 -107 -130 -140 -170 -33 -40 -85 -103 -115
-141 -30 -37 -85 -104 -122 -147 -38 -44 -73 -88 -78 -99 -13 -24 -37 -25 -44
-1 -3 10 -28 54 -55 97 -27 44 -67 108 -88 143 -21 34 -47 77 -58 95 -12 18
-32 52 -46 77 -14 25 -45 75 -67 112 -23 37 -42 72 -42 78 0 6 37 56 83 111
45 56 91 113 102 128 10 14 62 78 115 141 52 63 104 126 115 141 11 15 76 95
145 179 69 83 139 169 155 189 17 21 84 104 150 185 66 81 136 169 157 195
l36 48 -36 46 c-21 25 -91 112 -157 193 -66 81 -133 164 -150 185 -16 21 -84
103 -150 184 -66 80 -131 160 -145 178 -14 18 -65 82 -115 142 -232 283 -305
375 -305 386 0 5 25 50 55 100 30 50 55 92 55 95 0 2 18 31 40 63 22 32 40 62
40 65 0 4 18 34 40 66 22 32 40 61 40 64 0 3 18 33 40 67 21 33 42 70 45 80 8
25 31 24 45 0z m-470 -22 c0 -11 -9 -43 -85 -299 -51 -174 -112 -382 -150
-510 -18 -63 -51 -176 -73 -250 -22 -74 -57 -191 -77 -260 -20 -69 -53 -183
-75 -255 -52 -178 -100 -343 -150 -515 -48 -167 -95 -331 -150 -515 -21 -71
-54 -184 -74 -250 -19 -66 -53 -183 -76 -260 -22 -77 -56 -192 -75 -255 -18
-63 -52 -178 -75 -255 -23 -77 -44 -146 -46 -152 -3 -10 -83 -13 -360 -13
-316 0 -355 2 -350 15 3 9 15 48 26 88 11 40 38 131 59 202 22 72 55 184 74
250 19 66 53 181 75 255 46 155 92 314 151 520 45 156 85 293 151 515 22 77
56 192 75 255 18 63 52 178 75 255 22 77 56 192 75 255 18 63 51 176 73 250
22 74 56 189 75 255 45 154 105 358 151 511 20 67 36 128 36 136 0 36 16 38
372 38 247 0 348 -3 348 -11z"/>
</g>
</svg>
